<svg xmlns="http://www.w3.org/2000/svg" height="450" width="880">
<path d="M0,0v450h880V0z" fill="#f33"/>
<path d="M23,23v404h834V23z" fill="#09c" stroke="#fff" stroke-width="6"/>
<path d="M8,126h15M8,324h15M857,126h15M857,324h15M23,73c64,0 117,53 117,117v63c0,64-53,117-117,117M857,73c-64,0-117,53-117,117v63c0,64 53,117 117,117M240,8v30m100-30v30m200-30v30m100-30v30M440,23v404" stroke="#fff" stroke-width="6" fill="none"/>
<path d="M20,190.5h-19.5v63h19.5M.5,193.5h19.5m0,3h-19.5m0,3h19.5m0,3h-19.5m0,3h19.5m0,3h-19.5m0,3h19.5m0,3h-19.5m0,3h19.5m0,3h-19.5m0,3h19.5m0,3h-19.5m0,3h19.5m0,3h-19.5m0,3h19.5m0,3h-19.5m0,3h19.5m0,3h-19.5m0,3h19.5m0,3h-19.5M3.5,190.5v63m3,0v-63m3,0v63m3,0v-63m3,0v63m3,0v-63 M860,190.5h19.5v63h-19.5M860,193.5h19.5m0,3h-19.5m0,3h19.5m0,3h-19.5m0,3h19.5m0,3h-19.5m0,3h19.5m0,3h-19.5m0,3h19.5m0,3h-19.5m0,3h19.5m0,3h-19.5m0,3h19.5m0,3h-19.5m0,3h19.5m0,3h-19.5m0,3h19.5m0,3h-19.5m0,3h19.5m0,3h-19.5M861.5,190.5v63m3,0v-63m3,0v63m3,0v-63m3,0v63m3,0v-63" stroke="#000" stroke-width="1" fill="none"/>
<path d="M20.5,190.5h5v63h-5zM854.5,190.5h5v63h-5z" fill="none" stroke="#777"/>
<path d="M21.5,191.5h3v61h-3zM855.5,191.5h3v61h-3z" stroke="#aaa" fill="#ccc"/>
<path d="M20,190.5h6m0,63h-6M854,190.5h6m0,63h-6z" fill="none" stroke="#333"/>
<path d="M35,23c0,6.6-5.4,12-12,12M845,23c0,6.6 5.4,12 12,12M35,427c0-6.6-5.4-12-12-12M845,427c0-6.6 5.4-12 12-12" stroke="#fff" stroke-width="4" fill="none"/>
<circle cx="140" cy="222" r="6" fill="#fff"/>
<circle cx="440" cy="222" r="6" fill="#fff"/>
<circle cx="740" cy="222" r="6" fill="#fff"/>
<circle cx="440" cy="222" r="60" fill="none" stroke="#fff" stroke-width="6"/>
<circle cx="230" cy="222" r="3" fill="#fff"/>
<circle cx="650" cy="222" r="3" fill="#fff"/>
<circle cx="230" cy="122" r="2" fill="#fff"/>
<circle cx="230" cy="322" r="2" fill="#fff"/>
<circle cx="650" cy="122" r="2" fill="#fff"/>
<circle cx="650" cy="322" r="2" fill="#fff"/>
</svg>